<?xml version="1.0" standalone="no"?>
<!DOCTYPE svg PUBLIC "-//W3C//DTD SVG 20010904//EN"
 "http://www.w3.org/TR/2001/REC-SVG-20010904/DTD/svg10.dtd">
<svg version="1.0" xmlns="http://www.w3.org/2000/svg"
 width="1024.000000pt" height="1024.000000pt" viewBox="0 0 1024.000000 1024.000000"
 preserveAspectRatio="xMidYMid meet">

<g transform="translate(0.000000,1024.000000) scale(0.100000,-0.100000)"
fill="#006fee" stroke="none">
<path d="M2055 6914 c-515 -76 -931 -365 -1152 -801 -259 -508 -225 -1073 93
-1551 72 -107 241 -284 354 -368 173 -129 435 -242 649 -278 119 -20 356 -21
476 -1 314 51 600 199 825 427 517 522 581 1348 153 1951 -75 105 -235 266
-341 341 -162 115 -389 213 -592 257 -92 20 -387 34 -465 23z m430 -218 c401
-90 723 -330 904 -675 99 -191 151 -400 151 -610 0 -167 -26 -320 -77 -459
l-16 -44 -22 59 c-40 112 -109 189 -215 241 -49 24 -66 27 -160 27 -95 0 -110
-3 -162 -28 -32 -16 -58 -34 -58 -41 0 -7 14 -25 30 -41 43 -42 127 -165 157
-232 51 -114 65 -181 70 -329 l5 -142 -58 -46 c-33 -25 -61 -46 -64 -46 -3 0
-5 82 -6 183 0 169 -2 187 -26 254 -43 122 -94 201 -187 293 -94 94 -195 153
-321 186 -101 28 -302 25 -404 -4 -204 -59 -356 -181 -440 -353 -67 -139 -80
-204 -80 -396 l0 -162 -61 44 -60 43 1 118 c2 229 59 394 195 561 l58 72 -27
19 c-54 37 -95 47 -197 47 -89 0 -107 -3 -160 -28 -99 -46 -165 -122 -209
-239 l-23 -60 -16 44 c-75 196 -96 487 -52 707 79 396 325 729 676 915 99 53
262 109 369 126 41 6 82 13 90 15 38 9 332 -5 395 -19z"/>
<path d="M2105 6303 c-162 -59 -264 -179 -301 -356 -66 -313 211 -606 513
-543 92 19 145 46 214 113 145 138 181 370 88 559 -38 77 -131 169 -208 206
-56 27 -79 32 -161 35 -73 3 -106 0 -145 -14z"/>
<path d="M1320 5798 c-87 -47 -141 -158 -126 -259 10 -65 59 -144 109 -176 50
-32 135 -42 192 -23 21 7 57 32 80 55 111 110 95 299 -33 389 -35 25 -55 31
-110 34 -56 3 -74 0 -112 -20z"/>
<path d="M2965 5806 c-156 -68 -194 -288 -70 -411 51 -52 99 -69 176 -63 190
14 278 265 145 416 -17 19 -49 43 -71 53 -47 22 -136 24 -180 5z"/>
<path d="M7397 6169 c-61 -14 -112 -45 -156 -95 -53 -61 -71 -122 -71 -246 l0
-98 -85 0 -85 0 0 -100 0 -100 85 0 85 0 0 -402 0 -403 126 0 125 0 -3 403 -3
402 118 0 117 0 0 105 0 105 -117 -2 -118 -1 0 79 c1 124 38 160 168 158 l67
-1 0 93 0 93 -37 10 c-45 13 -163 13 -216 0z"/>
<path d="M8045 6167 c-94 -32 -149 -79 -187 -162 -18 -40 -23 -73 -26 -162
l-4 -113 -59 0 -59 0 0 -100 0 -100 60 0 60 0 0 -400 0 -400 125 0 125 0 0
400 0 400 115 0 115 0 0 105 0 104 -116 -3 -116 -2 4 87 c3 75 6 91 27 112 29
31 104 51 163 42 l43 -7 0 94 c0 71 -3 95 -15 102 -24 16 -210 17 -255 3z"/>
<path d="M8450 5435 l0 -715 125 0 125 0 0 715 0 715 -125 0 -125 0 0 -715z"/>
<path d="M4474 6125 c-116 -25 -212 -86 -267 -168 -54 -80 -70 -143 -65 -252
3 -79 8 -101 36 -158 59 -119 149 -171 412 -237 179 -45 225 -64 263 -110 73
-87 23 -219 -95 -251 -24 -6 -83 -9 -133 -7 -75 3 -98 8 -142 32 -55 30 -99
85 -110 136 l-5 30 -134 0 -134 0 0 -28 c0 -41 28 -131 57 -179 35 -60 124
-138 196 -172 95 -44 158 -56 297 -55 108 0 135 4 203 27 176 61 267 162 298
328 33 181 -63 344 -247 416 -43 17 -117 41 -164 53 -233 58 -292 86 -326 153
-20 38 -14 109 13 146 10 14 41 37 69 51 68 35 189 34 259 -1 52 -26 91 -75
101 -127 l7 -32 128 0 c100 0 129 3 129 13 0 7 -5 40 -11 73 -30 162 -136 269
-315 314 -90 23 -227 25 -320 5z"/>
<path d="M5392 5860 l3 -130 -82 0 -83 0 0 -100 0 -100 80 0 80 0 0 -247 c1
-336 15 -424 79 -497 51 -58 201 -93 325 -75 38 5 72 12 77 15 5 3 9 52 9 108
l0 103 -68 -5 c-87 -6 -126 12 -153 71 -17 38 -19 68 -19 285 l0 242 113 0
112 0 0 100 0 100 -112 0 -113 0 0 130 0 130 -126 0 -125 0 3 -130z"/>
<path d="M6327 5739 c-152 -31 -259 -130 -282 -261 l-7 -38 108 0 109 0 29 36
c37 47 80 64 163 64 118 0 173 -49 173 -152 l0 -48 -89 0 c-167 0 -316 -27
-403 -72 -100 -53 -141 -127 -142 -258 0 -69 4 -94 23 -132 28 -58 77 -103
151 -137 49 -23 68 -26 165 -26 100 0 116 3 170 28 33 15 77 44 98 65 l37 36
0 -57 0 -57 120 0 121 0 -3 388 c-3 383 -3 387 -27 440 -34 75 -106 136 -189
162 -77 24 -252 34 -325 19z m289 -695 c-18 -69 -139 -144 -234 -144 -100 0
-155 43 -155 122 0 35 6 47 35 74 40 36 82 47 249 67 l104 12 3 -55 c2 -30 1
-64 -2 -76z"/>
<path d="M8921 5458 c190 -474 273 -700 274 -744 1 -95 -107 -194 -212 -194
l-43 0 0 -105 0 -105 90 0 c125 0 186 24 268 106 49 49 73 84 106 156 58 124
186 447 252 633 29 83 82 233 118 334 36 102 66 186 66 188 0 2 -60 3 -134 3
l-133 0 -6 -28 c-7 -36 -217 -645 -226 -654 -3 -4 -59 148 -125 338 l-119 344
-142 0 -143 0 109 -272z"/>
</g>
</svg>
